<?xml version="1.0" encoding="utf-8"?>
<!-- Generator: Adobe Illustrator 15.0.0, SVG Export Plug-In . SVG Version: 6.00 Build 0)  -->
<!DOCTYPE svg PUBLIC "-//W3C//DTD SVG 1.1//EN" "http://www.w3.org/Graphics/SVG/1.1/DTD/svg11.dtd">
<svg version="1.1" id="Layer_1" xmlns="http://www.w3.org/2000/svg" xmlns:xlink="http://www.w3.org/1999/xlink" x="0px" y="0px"
	 width="1000px" height="1000px" viewBox="0 0 1000 1000" enable-background="new 0 0 1000 1000" xml:space="preserve">
<polygon fill="#FF0080" points="526.36,214.89 302.738,214.89 302.738,215.039 302.738,300.335 302.738,438.661 388.185,438.661 
	388.185,300.335 526.36,300.335 "/>
<polygon fill="#FF0080" points="611.815,333.936 611.815,472.26 473.64,472.26 473.64,557.706 697.262,557.706 697.262,557.558 
	697.262,472.26 697.262,333.936 "/>
<polygon fill="#15123F" points="589.468,360.319 589.468,333.368 499.652,379.086 411.006,333.331 411.006,360.263 499.949,405.516 
	"/>
<g>
	<defs>
		<rect id="SVGID_1_" width="1000" height="1000"/>
	</defs>
	<clipPath id="SVGID_2_">
		<use xlink:href="#SVGID_1_"  overflow="visible"/>
	</clipPath>
	<path clip-path="url(#SVGID_2_)" fill="#15123F" d="M199.339,703.407l-19.984-0.13l-15.019-24.947h-42.318l9.404-15.412h23.64
		l-15.543-25.729l-40.227,66.089H79.308l48.456-80.587c1.219-2.09,2.917-4.005,5.094-5.748c2.613-2.001,4.963-3.003,7.053-3.003
		c2.263,0,4.615,0.959,7.053,2.873c2.09,1.655,3.788,3.614,5.094,5.878L199.339,703.407z"/>
	<polygon clip-path="url(#SVGID_2_)" fill="#15123F" points="279.795,703.407 202.865,703.407 202.865,614.2 218.408,614.2 
		218.408,687.865 279.795,687.865 	"/>
	<polygon clip-path="url(#SVGID_2_)" fill="#15123F" points="364.43,703.407 287.499,703.407 287.499,614.2 303.042,614.2 
		303.042,687.865 364.43,687.865 	"/>
	<rect x="419.937" y="614.2" clip-path="url(#SVGID_2_)" fill="#15123F" width="15.542" height="89.207"/>
	<path clip-path="url(#SVGID_2_)" fill="#15123F" d="M545.583,695.701c0,5.747-1.959,8.62-5.876,8.62
		c-2.875,0-6.097-1.783-9.666-5.354l-57.207-57.469v61.909h-15.412v-81.501c0-2.089,0.565-3.896,1.698-5.42
		c1.13-1.523,2.743-2.286,4.832-2.286c2.873,0,5.832,1.524,8.882,4.571l57.207,57.339V614.2h15.542V695.701z"/>
	<path clip-path="url(#SVGID_2_)" fill="#15123F" d="M720.728,657.824c0,13.148-4.224,24.032-12.669,32.652
		c-8.446,8.621-19.199,12.931-32.261,12.931h-24.946c-12.975,0-23.706-4.31-32.195-12.931c-8.49-8.62-12.734-19.504-12.734-32.652
		c0-13.061,4.2-23.595,12.603-31.607c8.403-8.011,19.179-12.017,32.327-12.017h24.946c13.234,0,24.032,4.006,32.393,12.017
		C716.549,634.229,720.728,644.764,720.728,657.824 M705.315,659.131c0-8.62-2.765-15.673-8.293-21.159
		c-5.531-5.485-12.604-8.229-21.225-8.229h-24.946c-8.534,0-15.565,2.743-21.094,8.229c-5.531,5.486-8.295,12.539-8.295,21.159
		c0,8.534,2.764,15.456,8.295,20.767c5.528,5.313,12.56,7.968,21.094,7.968h24.946c8.62,0,15.693-2.654,21.225-7.968
		C702.551,674.587,705.315,667.665,705.315,659.131"/>
	<path clip-path="url(#SVGID_2_)" fill="#15123F" d="M822.604,695.701c0,5.747-1.959,8.62-5.876,8.62
		c-2.874,0-6.097-1.783-9.665-5.354l-57.207-57.469v61.909h-15.412v-81.501c0-2.089,0.564-3.896,1.697-5.42
		c1.13-1.523,2.743-2.286,4.832-2.286c2.873,0,5.832,1.524,8.883,4.571l57.207,57.339V614.2h15.541V695.701z"/>
	<path clip-path="url(#SVGID_2_)" fill="#15123F" d="M920.692,703.407h-77.061V614.2h77.061v15.543h-61.518v58.122h61.518V703.407z
		 M916.644,665.923h-50.938v-15.544h50.938V665.923z"/>
	<path clip-path="url(#SVGID_2_)" fill="#FF0080" d="M327.874,784.342H277.48v-58.338h50.394v10.165h-40.23v38.009h40.23V784.342z
		 M325.226,759.828h-33.311v-10.164h33.311V759.828z"/>
	<path clip-path="url(#SVGID_2_)" fill="#FF0080" d="M460.434,784.427h-11.446l-8.456-40.827l-19.559,37.667
		c-1.31,2.563-3.133,3.844-5.467,3.844c-2.619,0-4.612-1.309-5.978-3.929l-19.56-37.582l-8.371,40.827h-11.53l13.068-53.554
		c0.342-1.538,1.095-2.874,2.264-4.014c1.166-1.139,2.519-1.709,4.056-1.709c2.222,0,4.327,1.908,6.321,5.723l19.474,38.18
		l19.559-38.18c1.993-3.814,4.101-5.723,6.322-5.723c1.48,0,2.846,0.598,4.099,1.795c1.081,1.081,1.822,2.39,2.221,3.928
		L460.434,784.427z"/>
	<path clip-path="url(#SVGID_2_)" fill="#FF0080" d="M580.522,784.342l-13.067-0.085l-9.822-16.314h-27.674l6.149-10.079h15.46
		l-10.163-16.826l-26.309,43.22h-13.067l31.688-52.7c0.796-1.366,1.907-2.619,3.331-3.759c1.707-1.309,3.245-1.964,4.612-1.964
		c1.48,0,3.017,0.627,4.611,1.879c1.367,1.082,2.478,2.363,3.331,3.844L580.522,784.342z"/>
	<rect x="621.18" y="726.004" clip-path="url(#SVGID_2_)" fill="#FF0080" width="10.163" height="58.338"/>
	<polygon clip-path="url(#SVGID_2_)" fill="#FF0080" points="727.006,784.342 676.697,784.342 676.697,726.004 686.861,726.004 
		686.861,774.178 727.006,774.178 	"/>
	<rect x="745.16" y="751.289" clip-path="url(#SVGID_2_)" fill="#FF0080" width="175.532" height="10.242"/>
	<rect x="79.307" y="751.289" clip-path="url(#SVGID_2_)" fill="#FF0080" width="175.533" height="10.242"/>
</g>
</svg>
